PathFileType	4	(X/Y/Z)	/Users/itak/Documents/Research/Walk-IL/dataset/trc/00084_00006.trc
DataRate	CameraRate	NumFrames	NumMarkers	Units	OrigDataRate	OrigDataStartFrame	OrigNumFrames
100.000000	100.000000	4	54	mm	100.000000	242	484
Frame#	Time	RPSI			LPSI			L3			STRN			T10			C7			CLAV			RBAK			LBAK			LSHO			LUPA			LAEL			LAOL			LWTS			LWPS			LFRA			LIFD			LHPS			LHTS			RSHO			RUPA			RAEL			RAOL			RWTS			RWPS			RFRA			RIFD			RHTS			RHPS			RBHD			LFHD			RFHD			LBHD			LHIP			RHIP			RASI			LASI			LKNE			LTHI			LANK			LTIP			LTOE			LMT1			LMT5			LHEE			RKNE			RTHI			RANK			RTIP			RTOE			RMT1			RMT5			RHEE			*53			
		X1	Y1	Z1	X2	Y2	Z2	X3	Y3	Z3	X4	Y4	Z4	X5	Y5	Z5	X6	Y6	Z6	X7	Y7	Z7	X8	Y8	Z8	X9	Y9	Z9	X10	Y10	Z10	X11	Y11	Z11	X12	Y12	Z12	X13	Y13	Z13	X14	Y14	Z14	X15	Y15	Z15	X16	Y16	Z16	X17	Y17	Z17	X18	Y18	Z18	X19	Y19	Z19	X20	Y20	Z20	X21	Y21	Z21	X22	Y22	Z22	X23	Y23	Z23	X24	Y24	Z24	X25	Y25	Z25	X26	Y26	Z26	X27	Y27	Z27	X28	Y28	Z28	X29	Y29	Z29	X30	Y30	Z30	X31	Y31	Z31	X32	Y32	Z32	X33	Y33	Z33	X34	Y34	Z34	X35	Y35	Z35	X36	Y36	Z36	X37	Y37	Z37	X38	Y38	Z38	X39	Y39	Z39	X40	Y40	Z40	X41	Y41	Z41	X42	Y42	Z42	X43	Y43	Z43	X44	Y44	Z44	X45	Y45	Z45	X46	Y46	Z46	X47	Y47	Z47	X48	Y48	Z48	X49	Y49	Z49	X50	Y50	Z50	X51	Y51	Z51	X52	Y52	Z52	X53	Y53	Z53	X54	Y54	Z54	

243	2.42	-384.774169921875	1018.137817382812	459.0142517089844	-455.3391723632812	998.0176391601562	300.6593017578125	-420.2186279296875	1069.252563476562	372.3722229003906	-180.5855712890625	1265.619506835938	295.1253051757812	-436.7606811523438	1203.129638671875	375.8087768554688	-373.6447143554688	1469.352783203125	368.4688415527344	-207.2597961425781	1380.352661132812	308.6741943359375	-412.5715942382812	1326.849731445312	452.1617126464844	-430.1717529296875	1438.21337890625	278.9942016601562	-355.2114562988281	1446.023193359375	177.3480529785156	-405.0234680175781	1326.003295898438	104.7211380004883	-413.1063842773438	1111.888061523438	71.11754608154297	-443.2975158691406	1096.301513671875	171.9595489501953	-315.6736450195312	868.1876220703125	94.39716339111328	-391.8187561035156	860.3405151367188	58.75193786621094	-401.7611083984375	1002.4599609375	54.02345275878906	-307.6810607910156	682.055908203125	107.8294906616211	-363.6826171875	779.2652587890625	50.68286895751953	-299.2267150878906	784.7994384765625	81.52281951904297	-260.0667114257812	1422.640991210938	512.3162841796875	-253.1154022216797	1352.099609375	573.7479248046875	-275.5370483398438	1085.06787109375	606.7390747070312	-280.8000183105469	1065.030395507812	508.083251953125	-127.8600387573242	848.3656616210938	521.1677856445312	-180.9329071044922	823.76611328125	585.6857299804688	-257.0386962890625	1004.134582519531	607.253662109375	-112.8558044433594	664.06201171875	489.7818603515625	-94.66068267822266	751.13427734375	508.5039978027344	-134.3644866943359	740.6094970703125	573.7387084960938	-343.4743041992188	1656.78125	343.9565124511719	-134.5388946533203	1664.393310546875	295.673828125	-226.5661468505859	1668.355224609375	209.8093719482422	-237.7781066894531	1643.9765625	430.6736145019531	-392.6943664550781	934.6834106445312	176.7901153564453	-288.3313293457031	952.927734375	503.9955139160156	-183.9416351318359	973.1121826171875	441.7672119140625	-269.7978210449219	950.9791259765625	188.1072845458984	-243.3129577636719	466.1727600097656	196.2737274169922	-299.6531372070312	610.1212768554688	174.6368255615234	-627.5025634765625	196.3706359863281	346.1386108398438	-451.0267639160156	319.0933837890625	261.7343139648438	-499.7980346679688	46.73434066772461	324.3882446289062	-515.208251953125	84.86848449707031	380.8988037109375	-587.94140625	105.943473815918	299.9214172363281	-627.219482421875	246.1347961425781	422.5516357421875	-136.3446960449219	525.8551025390625	428.1840209960938	-177.9360504150391	790.6956787109375	473.34765625	-183.0373687744141	37.13414764404297	462.7260437011719	-134.8342895507812	397.7223205566406	438.8822631835938	-7.284939765930176	41.65787887573242	332.6851501464844	-79.14348602294922	47.37858581542969	324.2617492675781	-66.927978515625	42.70805740356445	421.1772155761719	-250.4398193359375	40.45509719848633	432.0040283203125	nan	nan	nan	
244	2.43	-375.8286743164062	1019.21240234375	457.7456665039062	-447.5641174316406	998.6702270507812	299.93798828125	-411.8193664550781	1070.369750976562	371.7494201660156	-172.6356506347656	1266.525268554688	291.6005554199219	-427.6866760253906	1204.52490234375	375.5202941894531	-364.360595703125	1470.588500976562	367.3594360351562	-198.9722290039062	1381.287963867188	305.3564758300781	-402.5313415527344	1328.228881835938	451.665771484375	-422.2452392578125	1439.341918945312	278.7030029296875	-348.6913757324219	1446.957397460938	175.9955902099609	-400.0203552246094	1327.107666015625	104.1330795288086	-409.2455139160156	1113.054443359375	70.36540985107422	-438.4118347167969	1097.63037109375	171.5182800292969	-312.2216186523438	869.1454467773438	93.10995483398438	-388.8045654296875	861.3570556640625	58.06446838378906	-398.37255859375	1003.545349121094	53.27684020996094	-304.4500427246094	683.05908203125	106.8237838745117	-360.8490905761719	780.2120971679688	49.94738388061523	-296.11669921875	785.7290649414062	80.22203826904297	-248.9799041748047	1423.734375	509.6427612304688	-241.0923614501953	1353.316284179688	571.07177734375	-263.4817504882812	1086.425415039062	605.5169677734375	-270.80126953125	1066.1337890625	507.1838684082031	-118.4199142456055	848.9262084960938	517.801025390625	-170.3434143066406	824.67822265625	583.5073852539062	-245.2022705078125	1005.48095703125	605.9364624023438	-104.4571990966797	664.5289916992188	486.7293090820312	-85.68894195556641	751.6014404296875	504.8034362792969	-124.1299209594727	741.35400390625	570.8829345703125	-334.7521667480469	1657.708740234375	342.081298828125	-126.1191787719727	1665.66455078125	292.4581298828125	-218.6865234375	1669.671752929688	207.1924591064453	-228.4733734130859	1644.866333007812	428.0706176757812	-385.5534362792969	935.8765258789062	175.3861389160156	-279.299072265625	953.7844848632812	502.1629638671875	-175.1733703613281	973.8409423828125	439.5173645019531	-262.4547119140625	952.3802490234375	186.2572631835938	-226.3751983642578	469.8982849121094	187.6165313720703	-286.5687255859375	612.8681030273438	168.4774017333984	-608.3719482421875	201.9776916503906	344.6204528808594	-433.2447509765625	323.2254333496094	257.1689758300781	-481.6041259765625	50.68907165527344	315.5538635253906	-495.5688171386719	88.88101959228516	373.5791625976562	-570.208740234375	112.9994888305664	295.0061340332031	-606.365478515625	249.6632995605469	422.2537841796875	-132.4113616943359	525.3652954101562	427.6845703125	-171.0247039794922	790.9248046875	471.6831665039062	-182.9758148193359	37.22415161132812	462.6115112304688	-132.1544036865234	397.3371887207031	438.6292419433594	-6.953231811523438	40.87547302246094	332.6634521484375	-78.88798522949219	47.10171508789062	324.1254577636719	-66.70462036132812	42.46135711669922	421.1630554199219	-250.3598785400391	40.64343643188477	431.934326171875	nan	nan	nan	
245	2.44	-367.0201721191406	1020.262329101562	456.3453674316406	-439.7991333007812	999.54931640625	299.0390319824219	-403.5202941894531	1071.478149414062	371.0004272460938	-164.8051300048828	1267.502563476562	288.0389099121094	-418.6653137207031	1205.940551757812	375.1641235351562	-355.2208862304688	1471.836059570312	366.1711730957031	-190.8443603515625	1382.276611328125	301.9869689941406	-392.5883178710938	1329.640258789062	451.0856628417969	-414.3938903808594	1440.507080078125	278.3616027832031	-342.3128356933594	1447.945678710938	174.6139678955078	-395.1479187011719	1328.2607421875	103.5640640258789	-405.5283508300781	1114.274291992188	69.72787475585938	-433.5448913574219	1099.011596679688	171.2149658203125	-308.8199462890625	870.1902465820312	91.83760070800781	-385.8632507324219	862.4265747070312	57.50198745727539	-395.1117858886719	1004.679138183594	52.64546203613281	-301.015380859375	684.1795654296875	105.7319030761719	-358.036865234375	781.2207641601562	49.29113388061523	-292.9768981933594	786.8063354492188	78.87804412841797	-238.0440979003906	1424.891723632812	506.8835144042969	-229.2384796142578	1354.58642578125	568.3065795898438	-251.4208221435547	1087.8466796875	604.075439453125	-260.7481994628906	1067.36083984375	506.0671691894531	-109.0237731933594	849.517578125	514.3414306640625	-159.7277221679688	825.6860961914062	581.2717895507812	-233.3434906005859	1006.918334960938	604.4271850585938	-96.17707824707031	664.9879760742188	483.7659606933594	-76.82943725585938	752.079345703125	501.09033203125	-113.9121704101562	742.1810913085938	568.0316772460938	-326.0866088867188	1658.6875	340.0723876953125	-117.7739944458008	1666.90087890625	289.0770568847656	-210.8877105712891	1670.972534179688	204.4282531738281	-219.2568206787109	1645.787353515625	425.3111267089844	-378.3930358886719	937.2969360351562	173.8206329345703	-270.5097045898438	954.5829467773438	500.33056640625	-166.5201263427734	974.5390625	437.2427368164062	-255.1398468017578	953.8786010742188	184.3936920166016	-209.8609466552734	474.0525207519531	179.0204620361328	-273.7767028808594	615.9427490234375	162.3040618896484	-588.4563598632812	206.1264801025391	342.645263671875	-415.2803649902344	326.8833923339844	252.4235076904297	-461.8824768066406	54.7808952331543	306.7096557617188	-474.7072448730469	92.27727508544922	366.0787963867188	-551.0096435546875	118.9341430664062	289.7825927734375	-585.1109619140625	251.71875	421.4769897460938	-128.5890960693359	524.88671875	427.0625610351562	-164.1988220214844	791.1569213867188	469.8622741699219	-182.9206085205078	37.31580352783203	462.492431640625	-129.5669403076172	396.9838562011719	438.2540893554688	-6.675310134887695	40.23725509643555	332.6438293457031	-78.68338012695312	46.87361145019531	323.9928894042969	-66.51516723632812	42.25160217285156	421.1440734863281	-250.2682037353516	40.86648941040039	431.8704833984375	nan	nan	nan	
246	2.45	-358.3066101074219	1021.304870605469	454.8062744140625	-432.0469970703125	1000.6240234375	297.9855651855469	-395.3081359863281	1072.584716796875	370.1380004882812	-157.0777740478516	1268.550048828125	284.4530029296875	-409.6869506835938	1207.345703125	374.7575988769531	-346.2246398925781	1473.083740234375	364.9048461914062	-182.8685150146484	1383.319580078125	298.5798645019531	-382.7263488769531	1331.065673828125	450.4151306152344	-406.5986633300781	1441.70751953125	277.9656066894531	-336.045166015625	1448.99755859375	173.2102355957031	-390.3606567382812	1329.479614257812	103.0088958740234	-401.9212036132812	1115.559936523438	69.22145080566406	-428.6575012207031	1100.459594726562	171.0634765625	-305.4711608886719	871.313232421875	90.54907989501953	-382.9872131347656	863.5672607421875	57.06789779663086	-391.9605407714844	1005.878723144531	52.13689804077148	-297.4499816894531	685.39697265625	104.5355377197266	-355.2785339355469	782.29638671875	48.7097282409668	-289.8321533203125	788.0026245117188	77.46474456787109	-227.2659759521484	1426.1220703125	504.0492858886719	-217.5609436035156	1355.92578125	565.4638061523438	-239.3849639892578	1089.342651367188	602.3909912109375	-250.6471252441406	1068.716796875	504.7054138183594	-99.65675354003906	850.15283203125	510.79541015625	-149.0719909667969	826.8153686523438	578.9625854492188	-221.4947357177734	1008.453369140625	602.69873046875	-88.03824615478516	665.4430541992188	480.9090576171875	-68.08811950683594	752.5653076171875	497.376708984375	-103.7329330444336	743.10400390625	565.1812133789062	-317.4846496582031	1659.712646484375	337.9314575195312	-109.5062866210938	1668.091552734375	285.5368957519531	-203.1728820800781	1672.2431640625	201.5216064453125	-210.1300811767578	1646.73974609375	422.4035339355469	-371.2398071289062	938.904541015625	172.1129150390625	-261.9732055664062	955.3690795898438	498.5443420410156	-157.9497833251953	975.2062377929688	434.9119262695312	-247.8810882568359	955.4559326171875	182.4992523193359	-193.8019104003906	478.5536804199219	170.5225219726562	-261.2442321777344	619.2865600585938	156.1198425292969	-567.8895263671875	208.7466125488281	340.131591796875	-397.1599731445312	329.9803466796875	247.4693908691406	-440.7650146484375	58.67327117919922	297.9376220703125	-452.7662658691406	94.94869995117188	358.4681396484375	-530.5479736328125	123.5422439575195	284.2919311523438	-563.531005859375	252.3383178710938	420.0860290527344	-124.8535232543945	524.4181518554688	426.3245849609375	-157.4175567626953	791.3753051757812	467.8910217285156	-182.8697357177734	37.40850830078125	462.3714294433594	-127.0665740966797	396.658935546875	437.768798828125	-6.445095539093018	39.73537063598633	332.6324462890625	-78.52074432373047	46.6927490234375	323.8755493164062	-66.35454559326172	42.07275009155273	421.1239929199219	-250.1703338623047	41.109375	431.8050537109375	nan	nan	nan	
